solid OpenSCAD_Model
  facet normal 1 0 0
    outer loop
      vertex 33.5 218 41
      vertex 33.5 214 37
      vertex 33.5 218 4
    endloop
  endfacet
  facet normal 1 0 0
    outer loop
      vertex 33.5 218 41
      vertex 33.5 69 37
      vertex 33.5 214 37
    endloop
  endfacet
  facet normal 1 -0 0
    outer loop
      vertex 33.5 65 41
      vertex 33.5 69 37
      vertex 33.5 218 41
    endloop
  endfacet
  facet normal 1 0 0
    outer loop
      vertex 33.5 65 4
      vertex 33.5 69 37
      vertex 33.5 65 41
    endloop
  endfacet
  facet normal 1 0 0
    outer loop
      vertex 33.5 69 37
      vertex 33.5 65 4
      vertex 33.5 69 0
    endloop
  endfacet
  facet normal 1 0 0
    outer loop
      vertex 33.5 24 0
      vertex 33.5 65 4
      vertex 33.5 24 4
    endloop
  endfacet
  facet normal 1 0 0
    outer loop
      vertex 33.5 65 4
      vertex 33.5 24 0
      vertex 33.5 69 0
    endloop
  endfacet
  facet normal 1 -0 0
    outer loop
      vertex 33.5 218 4
      vertex 33.5 259 0
      vertex 33.5 259 4
    endloop
  endfacet
  facet normal 1 0 0
    outer loop
      vertex 33.5 218 4
      vertex 33.5 214 0
      vertex 33.5 259 0
    endloop
  endfacet
  facet normal 1 0 0
    outer loop
      vertex 33.5 214 0
      vertex 33.5 218 4
      vertex 33.5 214 37
    endloop
  endfacet
  facet normal 0 0 -1
    outer loop
      vertex 18.5 69 37
      vertex 33.5 214 37
      vertex 33.5 69 37
    endloop
  endfacet
  facet normal -0 0 -1
    outer loop
      vertex 33.5 214 37
      vertex 18.5 69 37
      vertex 18.5 214 37
    endloop
  endfacet
  facet normal -0 0 -1
    outer loop
      vertex -3.42352 -0.727691 0
      vertex -9.2924 -1.97516 0
      vertex -3.5 0 0
    endloop
  endfacet
  facet normal 0 0 -1
    outer loop
      vertex -9.5 0 0
      vertex -3.5 0 0
      vertex -9.2924 -1.97516 0
    endloop
  endfacet
  facet normal 0 0 -1
    outer loop
      vertex -3.5 0 0
      vertex -9.5 0 0
      vertex -3.42352 0.727691 0
    endloop
  endfacet
  facet normal 0 0 -1
    outer loop
      vertex -9.5 65 0
      vertex -3.42352 0.727691 0
      vertex -9.5 0 0
    endloop
  endfacet
  facet normal 0 0 -1
    outer loop
      vertex -3.42352 0.727691 0
      vertex -9.5 65 0
      vertex -6.39 65 0
    endloop
  endfacet
  facet normal 0 0 -1
    outer loop
      vertex 9.2924 -1.97516 0
      vertex 3.42352 -0.727691 0
      vertex 3.5 0 0
    endloop
  endfacet
  facet normal 0 0 -1
    outer loop
      vertex 6.35674 -7.05988 0
      vertex 3.19741 -1.42358 0
      vertex 3.42352 -0.727691 0
    endloop
  endfacet
  facet normal 0 0 -1
    outer loop
      vertex 1.75 -3.03109 0
      vertex 4.75 -8.22724 0
      vertex 2.93566 -9.03504 0
    endloop
  endfacet
  facet normal 0 0 -1
    outer loop
      vertex 6.35674 -7.05988 0
      vertex 2.83156 -2.05725 0
      vertex 3.19741 -1.42358 0
    endloop
  endfacet
  facet normal 0 0 -1
    outer loop
      vertex 6.35674 -7.05988 0
      vertex 2.34196 -2.60101 0
      vertex 2.83156 -2.05725 0
    endloop
  endfacet
  facet normal 0 0 -1
    outer loop
      vertex 4.75 -8.22724 0
      vertex 1.75 -3.03109 0
      vertex 2.34196 -2.60101 0
    endloop
  endfacet
  facet normal 0 0 -1
    outer loop
      vertex 2.93566 -9.03504 0
      vertex 1.08156 -3.3287 0
      vertex 1.75 -3.03109 0
    endloop
  endfacet
  facet normal 0 0 -1
    outer loop
      vertex 0.99302 -9.44796 0
      vertex 1.08156 -3.3287 0
      vertex 2.93566 -9.03504 0
    endloop
  endfacet
  facet normal 0 0 -1
    outer loop
      vertex 0.99302 -9.44796 0
      vertex 0.365849 -3.48083 0
      vertex 1.08156 -3.3287 0
    endloop
  endfacet
  facet normal 0 0 -1
    outer loop
      vertex 0.99302 -9.44796 0
      vertex -0.365849 -3.48083 0
      vertex 0.365849 -3.48083 0
    endloop
  endfacet
  facet normal 0 0 -1
    outer loop
      vertex -0.99302 -9.44796 0
      vertex -0.365849 -3.48083 0
      vertex 0.99302 -9.44796 0
    endloop
  endfacet
  facet normal 0 0 -1
    outer loop
      vertex -0.99302 -9.44796 0
      vertex -1.08156 -3.3287 0
      vertex -0.365849 -3.48083 0
    endloop
  endfacet
  facet normal 0 0 -1
    outer loop
      vertex -2.93566 -9.03504 0
      vertex -1.08156 -3.3287 0
      vertex -0.99302 -9.44796 0
    endloop
  endfacet
  facet normal -0 0 -1
    outer loop
      vertex -1.08156 -3.3287 0
      vertex -2.93566 -9.03504 0
      vertex -1.75 -3.03109 0
    endloop
  endfacet
  facet normal 0 0 -1
    outer loop
      vertex -4.75 -8.22724 0
      vertex -1.75 -3.03109 0
      vertex -2.93566 -9.03504 0
    endloop
  endfacet
  facet normal -0 0 -1
    outer loop
      vertex -1.75 -3.03109 0
      vertex -4.75 -8.22724 0
      vertex -2.34196 -2.60101 0
    endloop
  endfacet
  facet normal 0 0 -1
    outer loop
      vertex -6.35674 -7.05988 0
      vertex -2.34196 -2.60101 0
      vertex -4.75 -8.22724 0
    endloop
  endfacet
  facet normal -0 0 -1
    outer loop
      vertex -2.34196 -2.60101 0
      vertex -6.35674 -7.05988 0
      vertex -2.83156 -2.05725 0
    endloop
  endfacet
  facet normal 0 0 -1
    outer loop
      vertex -7.68566 -5.58396 0
      vertex -2.83156 -2.05725 0
      vertex -6.35674 -7.05988 0
    endloop
  endfacet
  facet normal 0 0 -1
    outer loop
      vertex -3.69 68.5326 0
      vertex -4.15736 69 0
      vertex -3.69 69 0
    endloop
  endfacet
  facet normal 0 0 -1
    outer loop
      vertex -2.34196 2.60101 0
      vertex -4.15736 69 0
      vertex -3.69 68.5326 0
    endloop
  endfacet
  facet normal 0 0 -1
    outer loop
      vertex -3.42352 0.727691 0
      vertex -6.39 65 0
      vertex -4.15736 69 0
    endloop
  endfacet
  facet normal 0 -0 -1
    outer loop
      vertex -4.32792 69 0
      vertex -4.15736 69 0
      vertex -6.39 65 0
    endloop
  endfacet
  facet normal -0 0 -1
    outer loop
      vertex -2.83156 -2.05725 0
      vertex -7.68566 -5.58396 0
      vertex -3.19741 -1.42358 0
    endloop
  endfacet
  facet normal 0 0 -1
    outer loop
      vertex -8.67868 -3.864 0
      vertex -3.19741 -1.42358 0
      vertex -7.68566 -5.58396 0
    endloop
  endfacet
  facet normal 0 0 -1
    outer loop
      vertex -9.2924 -1.97516 0
      vertex -3.42352 -0.727691 0
      vertex -8.67868 -3.864 0
    endloop
  endfacet
  facet normal 0 0 -1
    outer loop
      vertex -4.15736 69 0
      vertex -4.32792 69 0
      vertex -4.24264 69.0853 0
    endloop
  endfacet
  facet normal -0 0 -1
    outer loop
      vertex -4.32792 69 0
      vertex -6.39 65 0
      vertex -6.39 69 0
    endloop
  endfacet
  facet normal 0 0 -1
    outer loop
      vertex 33.5 24 0
      vertex 18.5 65 0
      vertex 33.5 69 0
    endloop
  endfacet
  facet normal 0 0 -1
    outer loop
      vertex 1.75 3.03109 0
      vertex 33.5 24 0
      vertex 9.5 0 0
    endloop
  endfacet
  facet normal 0 0 -1
    outer loop
      vertex 3.42352 -0.727691 0
      vertex 9.2924 -1.97516 0
      vertex 8.67868 -3.864 0
    endloop
  endfacet
  facet normal 0 0 -1
    outer loop
      vertex 9.2924 -1.97516 0
      vertex 3.5 0 0
      vertex 9.5 0 0
    endloop
  endfacet
  facet normal 0 0 -1
    outer loop
      vertex 3.42352 -0.727691 0
      vertex 8.67868 -3.864 0
      vertex 7.68566 -5.58396 0
    endloop
  endfacet
  facet normal 0 0 -1
    outer loop
      vertex 3.42352 -0.727691 0
      vertex 7.68566 -5.58396 0
      vertex 6.35674 -7.05988 0
    endloop
  endfacet
  facet normal 0 0 -1
    outer loop
      vertex 2.34196 -2.60101 0
      vertex 6.35674 -7.05988 0
      vertex 4.75 -8.22724 0
    endloop
  endfacet
  facet normal 0 0 -1
    outer loop
      vertex 9.5 0 0
      vertex 3.5 0 0
      vertex 3.42352 0.727691 0
    endloop
  endfacet
  facet normal 0 0 -1
    outer loop
      vertex 9.5 0 0
      vertex 3.42352 0.727691 0
      vertex 3.19741 1.42358 0
    endloop
  endfacet
  facet normal 0 0 -1
    outer loop
      vertex 9.5 0 0
      vertex 3.19741 1.42358 0
      vertex 2.83156 2.05725 0
    endloop
  endfacet
  facet normal 0 0 -1
    outer loop
      vertex 2.34196 2.60101 0
      vertex 9.5 0 0
      vertex 2.83156 2.05725 0
    endloop
  endfacet
  facet normal 0 0 -1
    outer loop
      vertex 1.75 3.03109 0
      vertex 9.5 0 0
      vertex 2.34196 2.60101 0
    endloop
  endfacet
  facet normal 0 0 -1
    outer loop
      vertex 1.08156 3.3287 0
      vertex 33.5 24 0
      vertex 1.75 3.03109 0
    endloop
  endfacet
  facet normal 0 0 -1
    outer loop
      vertex 0.365849 3.48083 0
      vertex 33.5 24 0
      vertex 1.08156 3.3287 0
    endloop
  endfacet
  facet normal -0 0 -1
    outer loop
      vertex 33.5 24 0
      vertex 0.365849 3.48083 0
      vertex -0.15736 65 0
    endloop
  endfacet
  facet normal 0 0 -1
    outer loop
      vertex 33.5 24 0
      vertex -0.15736 65 0
      vertex 18.5 65 0
    endloop
  endfacet
  facet normal 0 0 -1
    outer loop
      vertex -0.365849 3.48083 0
      vertex -0.15736 65 0
      vertex 0.365849 3.48083 0
    endloop
  endfacet
  facet normal 0 0 -1
    outer loop
      vertex -1.08156 3.3287 0
      vertex -0.15736 65 0
      vertex -0.365849 3.48083 0
    endloop
  endfacet
  facet normal 0 0 -1
    outer loop
      vertex -1.75 3.03109 0
      vertex -0.15736 65 0
      vertex -1.08156 3.3287 0
    endloop
  endfacet
  facet normal 0 0 -1
    outer loop
      vertex -2.34196 2.60101 0
      vertex -0.15736 65 0
      vertex -1.75 3.03109 0
    endloop
  endfacet
  facet normal 0 0 -1
    outer loop
      vertex -4.15736 69 0
      vertex -2.34196 2.60101 0
      vertex -2.83156 2.05725 0
    endloop
  endfacet
  facet normal 0 0 -1
    outer loop
      vertex -4.15736 69 0
      vertex -2.83156 2.05725 0
      vertex -3.19741 1.42358 0
    endloop
  endfacet
  facet normal 0 0 -1
    outer loop
      vertex -4.15736 69 0
      vertex -3.19741 1.42358 0
      vertex -3.42352 0.727691 0
    endloop
  endfacet
  facet normal -0 0 -1
    outer loop
      vertex -3.19741 -1.42358 0
      vertex -8.67868 -3.864 0
      vertex -3.42352 -0.727691 0
    endloop
  endfacet
  facet normal 0 0 -1
    outer loop
      vertex -2.34196 2.60101 0
      vertex -3.69 68.5326 0
      vertex -0.15736 65 0
    endloop
  endfacet
  facet normal -0 0 -1
    outer loop
      vertex 33.5 69 0
      vertex 18.5 65 0
      vertex 18.5 69 0
    endloop
  endfacet
  facet normal -1 0 0
    outer loop
      vertex 18.5 65 4
      vertex 18.5 69 0
      vertex 18.5 65 0
    endloop
  endfacet
  facet normal -1 0 0
    outer loop
      vertex 18.5 214 0
      vertex 18.5 218 4
      vertex 18.5 218 0
    endloop
  endfacet
  facet normal -1 -0 0
    outer loop
      vertex 18.5 218 4
      vertex 18.5 214 0
      vertex 18.5 214 37
    endloop
  endfacet
  facet normal -1 0 0
    outer loop
      vertex 18.5 218 4
      vertex 18.5 214 37
      vertex 18.5 218 41
    endloop
  endfacet
  facet normal -1 0 0
    outer loop
      vertex 18.5 69 37
      vertex 18.5 218 41
      vertex 18.5 214 37
    endloop
  endfacet
  facet normal -1 0 0
    outer loop
      vertex 18.5 69 0
      vertex 18.5 65 4
      vertex 18.5 69 37
    endloop
  endfacet
  facet normal -1 0 0
    outer loop
      vertex 18.5 69 37
      vertex 18.5 65 41
      vertex 18.5 218 41
    endloop
  endfacet
  facet normal -1 0 0
    outer loop
      vertex 18.5 65 41
      vertex 18.5 69 37
      vertex 18.5 65 4
    endloop
  endfacet
  facet normal 0 1 -0
    outer loop
      vertex 33.5 69 0
      vertex 18.5 69 37
      vertex 33.5 69 37
    endloop
  endfacet
  facet normal 0 1 0
    outer loop
      vertex 18.5 69 37
      vertex 33.5 69 0
      vertex 18.5 69 0
    endloop
  endfacet
  facet normal 0 -1 0
    outer loop
      vertex -6.39 65 4
      vertex -3.69 65 41
      vertex -6.39 65 41
    endloop
  endfacet
  facet normal 0 -1 -0
    outer loop
      vertex -3.69 65 41
      vertex -6.39 65 4
      vertex -3.69 65 4
    endloop
  endfacet
  facet normal 0 1 -0
    outer loop
      vertex -6.39 65 0
      vertex -9.5 65 4
      vertex -6.39 65 4
    endloop
  endfacet
  facet normal 0 1 0
    outer loop
      vertex -9.5 65 4
      vertex -6.39 65 0
      vertex -9.5 65 0
    endloop
  endfacet
  facet normal 0 -1 0
    outer loop
      vertex 18.5 65 4
      vertex 33.5 65 41
      vertex 18.5 65 41
    endloop
  endfacet
  facet normal 0 -1 -0
    outer loop
      vertex 33.5 65 41
      vertex 18.5 65 4
      vertex 33.5 65 4
    endloop
  endfacet
  facet normal 0 1 -0
    outer loop
      vertex 18.5 65 0
      vertex -0.15736 65 4
      vertex 18.5 65 4
    endloop
  endfacet
  facet normal 0 1 0
    outer loop
      vertex -0.15736 65 4
      vertex 18.5 65 0
      vertex -0.15736 65 0
    endloop
  endfacet
  facet normal -0 0 1
    outer loop
      vertex 18.5 218 41
      vertex 33.5 65 41
      vertex 33.5 218 41
    endloop
  endfacet
  facet normal 0 0 1
    outer loop
      vertex 33.5 65 41
      vertex 18.5 218 41
      vertex 18.5 65 41
    endloop
  endfacet
  facet normal 0 1 -0
    outer loop
      vertex 33.5 218 4
      vertex 18.5 218 41
      vertex 33.5 218 41
    endloop
  endfacet
  facet normal 0 1 0
    outer loop
      vertex 18.5 218 41
      vertex 33.5 218 4
      vertex 18.5 218 4
    endloop
  endfacet
  facet normal 0 -1 0
    outer loop
      vertex -0.15736 218 0
      vertex 18.5 218 4
      vertex -0.15736 218 4
    endloop
  endfacet
  facet normal 0 -1 -0
    outer loop
      vertex 18.5 218 4
      vertex -0.15736 218 0
      vertex 18.5 218 0
    endloop
  endfacet
  facet normal 0 0 -1
    outer loop
      vertex -3.69 214 0
      vertex -4.15736 214 0
      vertex -3.69 214.467 0
    endloop
  endfacet
  facet normal 0 0 -1
    outer loop
      vertex 18.5 218 0
      vertex 33.5 214 0
      vertex 18.5 214 0
    endloop
  endfacet
  facet normal 0 0 -1
    outer loop
      vertex 33.5 214 0
      vertex 18.5 218 0
      vertex 33.5 259 0
    endloop
  endfacet
  facet normal 0 0 -1
    outer loop
      vertex -0.15736 218 0
      vertex 33.5 259 0
      vertex 18.5 218 0
    endloop
  endfacet
  facet normal 0 0 -1
    outer loop
      vertex 3.42352 283.728 0
      vertex 9.2924 284.975 0
      vertex 9.5 283 0
    endloop
  endfacet
  facet normal 0 0 -1
    outer loop
      vertex 33.5 259 0
      vertex 1.75 279.969 0
      vertex 9.5 283 0
    endloop
  endfacet
  facet normal 0 -0 -1
    outer loop
      vertex 3.19741 281.576 0
      vertex 9.5 283 0
      vertex 2.83156 280.943 0
    endloop
  endfacet
  facet normal 0 -0 -1
    outer loop
      vertex 3.5 283 0
      vertex 9.5 283 0
      vertex 3.42352 282.272 0
    endloop
  endfacet
  facet normal -0 0 -1
    outer loop
      vertex 9.2924 284.975 0
      vertex 3.42352 283.728 0
      vertex 8.67868 286.864 0
    endloop
  endfacet
  facet normal -0 0 -1
    outer loop
      vertex 8.67868 286.864 0
      vertex 3.19741 284.424 0
      vertex 7.68566 288.584 0
    endloop
  endfacet
  facet normal 0 0 -1
    outer loop
      vertex 3.19741 284.424 0
      vertex 8.67868 286.864 0
      vertex 3.42352 283.728 0
    endloop
  endfacet
  facet normal 0 0 -1
    outer loop
      vertex 3.42352 283.728 0
      vertex 9.5 283 0
      vertex 3.5 283 0
    endloop
  endfacet
  facet normal 0 -0 -1
    outer loop
      vertex 3.42352 282.272 0
      vertex 9.5 283 0
      vertex 3.19741 281.576 0
    endloop
  endfacet
  facet normal 0 0 -1
    outer loop
      vertex 9.5 283 0
      vertex 2.34196 280.399 0
      vertex 2.83156 280.943 0
    endloop
  endfacet
  facet normal 0 0 -1
    outer loop
      vertex 9.5 283 0
      vertex 1.75 279.969 0
      vertex 2.34196 280.399 0
    endloop
  endfacet
  facet normal 0 0 -1
    outer loop
      vertex 33.5 259 0
      vertex 1.08156 279.671 0
      vertex 1.75 279.969 0
    endloop
  endfacet
  facet normal 0 -0 -1
    outer loop
      vertex 0.365849 279.519 0
      vertex 33.5 259 0
      vertex -0.15736 218 0
    endloop
  endfacet
  facet normal 0 0 -1
    outer loop
      vertex 33.5 259 0
      vertex 0.365849 279.519 0
      vertex 1.08156 279.671 0
    endloop
  endfacet
  facet normal 0 0 -1
    outer loop
      vertex -0.15736 218 0
      vertex -0.365849 279.519 0
      vertex 0.365849 279.519 0
    endloop
  endfacet
  facet normal 0 0 -1
    outer loop
      vertex -6.39 218 0
      vertex -0.365849 279.519 0
      vertex -0.15736 218 0
    endloop
  endfacet
  facet normal -0 0 -1
    outer loop
      vertex -0.365849 279.519 0
      vertex -6.39 218 0
      vertex -1.08156 279.671 0
    endloop
  endfacet
  facet normal 0 0 -1
    outer loop
      vertex -9.5 218 0
      vertex -1.08156 279.671 0
      vertex -6.39 218 0
    endloop
  endfacet
  facet normal -0 0 -1
    outer loop
      vertex -1.08156 279.671 0
      vertex -9.5 218 0
      vertex -1.75 279.969 0
    endloop
  endfacet
  facet normal 0 0 -1
    outer loop
      vertex -9.5 283 0
      vertex -1.75 279.969 0
      vertex -9.5 218 0
    endloop
  endfacet
  facet normal 0 0 -1
    outer loop
      vertex -1.75 279.969 0
      vertex -9.5 283 0
      vertex -2.34196 280.399 0
    endloop
  endfacet
  facet normal 0 0 -1
    outer loop
      vertex -2.34196 280.399 0
      vertex -9.5 283 0
      vertex -2.83156 280.943 0
    endloop
  endfacet
  facet normal 0 0 -1
    outer loop
      vertex -6.39 218 0
      vertex -0.15736 218 0
      vertex -3.69 214.467 0
    endloop
  endfacet
  facet normal 0 0 -1
    outer loop
      vertex 2.83156 285.057 0
      vertex 7.68566 288.584 0
      vertex 3.19741 284.424 0
    endloop
  endfacet
  facet normal -0 0 -1
    outer loop
      vertex 7.68566 288.584 0
      vertex 2.83156 285.057 0
      vertex 6.35674 290.06 0
    endloop
  endfacet
  facet normal 0 0 -1
    outer loop
      vertex 2.34196 285.601 0
      vertex 6.35674 290.06 0
      vertex 2.83156 285.057 0
    endloop
  endfacet
  facet normal -0 0 -1
    outer loop
      vertex 6.35674 290.06 0
      vertex 2.34196 285.601 0
      vertex 4.75 291.227 0
    endloop
  endfacet
  facet normal 0 0 -1
    outer loop
      vertex 1.75 286.031 0
      vertex 4.75 291.227 0
      vertex 2.34196 285.601 0
    endloop
  endfacet
  facet normal -0 0 -1
    outer loop
      vertex 4.75 291.227 0
      vertex 1.75 286.031 0
      vertex 2.93566 292.035 0
    endloop
  endfacet
  facet normal 0 0 -1
    outer loop
      vertex 1.08156 286.329 0
      vertex 2.93566 292.035 0
      vertex 1.75 286.031 0
    endloop
  endfacet
  facet normal 0 0 -1
    outer loop
      vertex 1.08156 286.329 0
      vertex 0.99302 292.448 0
      vertex 2.93566 292.035 0
    endloop
  endfacet
  facet normal 0 0 -1
    outer loop
      vertex 0.365849 286.481 0
      vertex 0.99302 292.448 0
      vertex 1.08156 286.329 0
    endloop
  endfacet
  facet normal 0 0 -1
    outer loop
      vertex -0.365849 286.481 0
      vertex 0.99302 292.448 0
      vertex 0.365849 286.481 0
    endloop
  endfacet
  facet normal 0 0 -1
    outer loop
      vertex -0.365849 286.481 0
      vertex -0.99302 292.448 0
      vertex 0.99302 292.448 0
    endloop
  endfacet
  facet normal 0 0 -1
    outer loop
      vertex -1.08156 286.329 0
      vertex -0.99302 292.448 0
      vertex -0.365849 286.481 0
    endloop
  endfacet
  facet normal 0 0 -1
    outer loop
      vertex -2.93566 292.035 0
      vertex -1.08156 286.329 0
      vertex -1.75 286.031 0
    endloop
  endfacet
  facet normal 0 0 -1
    outer loop
      vertex -4.75 291.227 0
      vertex -1.75 286.031 0
      vertex -2.34196 285.601 0
    endloop
  endfacet
  facet normal 0 0 -1
    outer loop
      vertex -6.35674 290.06 0
      vertex -2.34196 285.601 0
      vertex -2.83156 285.057 0
    endloop
  endfacet
  facet normal 0 0 -1
    outer loop
      vertex -1.08156 286.329 0
      vertex -2.93566 292.035 0
      vertex -0.99302 292.448 0
    endloop
  endfacet
  facet normal 0 0 -1
    outer loop
      vertex -7.68566 288.584 0
      vertex -2.83156 285.057 0
      vertex -3.19741 284.424 0
    endloop
  endfacet
  facet normal 0 0 -1
    outer loop
      vertex -8.67868 286.864 0
      vertex -3.19741 284.424 0
      vertex -3.42352 283.728 0
    endloop
  endfacet
  facet normal 0 0 -1
    outer loop
      vertex -9.2924 284.975 0
      vertex -3.42352 283.728 0
      vertex -3.5 283 0
    endloop
  endfacet
  facet normal 0 0 -1
    outer loop
      vertex -4.32792 214 0
      vertex -3.69 214.467 0
      vertex -4.15736 214 0
    endloop
  endfacet
  facet normal 0 0 -1
    outer loop
      vertex -4.32792 214 0
      vertex -4.15736 214 0
      vertex -4.24264 213.915 0
    endloop
  endfacet
  facet normal -0 0 -1
    outer loop
      vertex -3.69 214.467 0
      vertex -4.32792 214 0
      vertex -6.39 218 0
    endloop
  endfacet
  facet normal 0 0 -1
    outer loop
      vertex -1.75 286.031 0
      vertex -4.75 291.227 0
      vertex -2.93566 292.035 0
    endloop
  endfacet
  facet normal 0 0 -1
    outer loop
      vertex -2.83156 280.943 0
      vertex -9.5 283 0
      vertex -3.19741 281.576 0
    endloop
  endfacet
  facet normal 0 0 -1
    outer loop
      vertex -3.42352 282.272 0
      vertex -9.5 283 0
      vertex -3.5 283 0
    endloop
  endfacet
  facet normal 0 0 -1
    outer loop
      vertex -6.39 218 0
      vertex -4.32792 214 0
      vertex -6.39 214 0
    endloop
  endfacet
  facet normal 0 -0 -1
    outer loop
      vertex -9.2924 284.975 0
      vertex -3.5 283 0
      vertex -9.5 283 0
    endloop
  endfacet
  facet normal 0 0 -1
    outer loop
      vertex -2.34196 285.601 0
      vertex -6.35674 290.06 0
      vertex -4.75 291.227 0
    endloop
  endfacet
  facet normal 0 0 -1
    outer loop
      vertex -2.83156 285.057 0
      vertex -7.68566 288.584 0
      vertex -6.35674 290.06 0
    endloop
  endfacet
  facet normal 0 0 -1
    outer loop
      vertex -3.19741 284.424 0
      vertex -8.67868 286.864 0
      vertex -7.68566 288.584 0
    endloop
  endfacet
  facet normal 0 0 -1
    outer loop
      vertex -3.19741 281.576 0
      vertex -9.5 283 0
      vertex -3.42352 282.272 0
    endloop
  endfacet
  facet normal 0 0 -1
    outer loop
      vertex -3.42352 283.728 0
      vertex -9.2924 284.975 0
      vertex -8.67868 286.864 0
    endloop
  endfacet
  facet normal 0 -1 0
    outer loop
      vertex 18.5 214 0
      vertex 33.5 214 37
      vertex 18.5 214 37
    endloop
  endfacet
  facet normal 0 -1 -0
    outer loop
      vertex 33.5 214 37
      vertex 18.5 214 0
      vertex 33.5 214 0
    endloop
  endfacet
  facet normal 1 -0 0
    outer loop
      vertex -3.69 214 37
      vertex -3.69 218 4
      vertex -3.69 218 41
    endloop
  endfacet
  facet normal 1 0 0
    outer loop
      vertex -3.69 214 0
      vertex -3.69 214.467 4
      vertex -3.69 214 37
    endloop
  endfacet
  facet normal 1 0 0
    outer loop
      vertex -3.69 218 4
      vertex -3.69 214 37
      vertex -3.69 214.467 4
    endloop
  endfacet
  facet normal 1 0 0
    outer loop
      vertex -3.69 218 41
      vertex -3.69 69 37
      vertex -3.69 214 37
    endloop
  endfacet
  facet normal 1 0 0
    outer loop
      vertex -3.69 69 37
      vertex -3.69 68.5326 4
      vertex -3.69 69 0
    endloop
  endfacet
  facet normal 1 -0 0
    outer loop
      vertex -3.69 65 41
      vertex -3.69 69 37
      vertex -3.69 218 41
    endloop
  endfacet
  facet normal 1 0 0
    outer loop
      vertex -3.69 65 4
      vertex -3.69 69 37
      vertex -3.69 65 41
    endloop
  endfacet
  facet normal 1 0 0
    outer loop
      vertex -3.69 69 37
      vertex -3.69 65 4
      vertex -3.69 68.5326 4
    endloop
  endfacet
  facet normal 1 0 0
    outer loop
      vertex -3.69 214.467 4
      vertex -3.69 214 0
      vertex -3.69 214.467 0
    endloop
  endfacet
  facet normal 1 0 0
    outer loop
      vertex -3.69 69 0
      vertex -3.69 68.5326 4
      vertex -3.69 68.5326 0
    endloop
  endfacet
  facet normal 0 0 -1
    outer loop
      vertex -6.39 69 37
      vertex -3.69 214 37
      vertex -3.69 69 37
    endloop
  endfacet
  facet normal -0 0 -1
    outer loop
      vertex -3.69 214 37
      vertex -6.39 69 37
      vertex -6.39 214 37
    endloop
  endfacet
  facet normal -1 0 0
    outer loop
      vertex -6.39 65 4
      vertex -6.39 69 0
      vertex -6.39 65 0
    endloop
  endfacet
  facet normal -1 0 0
    outer loop
      vertex -6.39 214 0
      vertex -6.39 218 4
      vertex -6.39 218 0
    endloop
  endfacet
  facet normal -1 -0 0
    outer loop
      vertex -6.39 218 4
      vertex -6.39 214 0
      vertex -6.39 214 37
    endloop
  endfacet
  facet normal -1 0 0
    outer loop
      vertex -6.39 218 4
      vertex -6.39 214 37
      vertex -6.39 218 41
    endloop
  endfacet
  facet normal -1 0 0
    outer loop
      vertex -6.39 69 37
      vertex -6.39 218 41
      vertex -6.39 214 37
    endloop
  endfacet
  facet normal -1 0 0
    outer loop
      vertex -6.39 69 0
      vertex -6.39 65 4
      vertex -6.39 69 37
    endloop
  endfacet
  facet normal -1 0 0
    outer loop
      vertex -6.39 69 37
      vertex -6.39 65 41
      vertex -6.39 218 41
    endloop
  endfacet
  facet normal -1 0 0
    outer loop
      vertex -6.39 65 41
      vertex -6.39 69 37
      vertex -6.39 65 4
    endloop
  endfacet
  facet normal 0 1 0
    outer loop
      vertex -4.32792 69 4
      vertex -3.69 69 37
      vertex -4.15736 69 4
    endloop
  endfacet
  facet normal 0 1 -0
    outer loop
      vertex -3.69 69 0
      vertex -4.15736 69 4
      vertex -3.69 69 37
    endloop
  endfacet
  facet normal 0 1 0
    outer loop
      vertex -4.15736 69 4
      vertex -3.69 69 0
      vertex -4.15736 69 0
    endloop
  endfacet
  facet normal 0 1 0
    outer loop
      vertex -3.69 69 37
      vertex -4.32792 69 4
      vertex -6.39 69 37
    endloop
  endfacet
  facet normal 0 1 0
    outer loop
      vertex -6.39 69 0
      vertex -4.32792 69 4
      vertex -4.32792 69 0
    endloop
  endfacet
  facet normal 0 1 0
    outer loop
      vertex -4.32792 69 4
      vertex -6.39 69 0
      vertex -6.39 69 37
    endloop
  endfacet
  facet normal -0 0 1
    outer loop
      vertex -6.39 218 41
      vertex -3.69 65 41
      vertex -3.69 218 41
    endloop
  endfacet
  facet normal 0 0 1
    outer loop
      vertex -3.69 65 41
      vertex -6.39 218 41
      vertex -6.39 65 41
    endloop
  endfacet
  facet normal 0 -1 0
    outer loop
      vertex -9.5 218 0
      vertex -6.39 218 4
      vertex -9.5 218 4
    endloop
  endfacet
  facet normal 0 -1 -0
    outer loop
      vertex -6.39 218 4
      vertex -9.5 218 0
      vertex -6.39 218 0
    endloop
  endfacet
  facet normal 0 1 -0
    outer loop
      vertex -3.69 218 4
      vertex -6.39 218 41
      vertex -3.69 218 41
    endloop
  endfacet
  facet normal 0 1 0
    outer loop
      vertex -6.39 218 41
      vertex -3.69 218 4
      vertex -6.39 218 4
    endloop
  endfacet
  facet normal 0 -1 0
    outer loop
      vertex -6.39 214 37
      vertex -4.32792 214 4
      vertex -3.69 214 37
    endloop
  endfacet
  facet normal 0 -1 0
    outer loop
      vertex -6.39 214 0
      vertex -4.32792 214 4
      vertex -6.39 214 37
    endloop
  endfacet
  facet normal 0 -1 -0
    outer loop
      vertex -4.32792 214 4
      vertex -6.39 214 0
      vertex -4.32792 214 0
    endloop
  endfacet
  facet normal 0 -1 0
    outer loop
      vertex -4.15736 214 4
      vertex -3.69 214 37
      vertex -4.32792 214 4
    endloop
  endfacet
  facet normal 0 -1 0
    outer loop
      vertex -3.69 214 0
      vertex -4.15736 214 4
      vertex -4.15736 214 0
    endloop
  endfacet
  facet normal 0 -1 0
    outer loop
      vertex -4.15736 214 4
      vertex -3.69 214 0
      vertex -3.69 214 37
    endloop
  endfacet
  facet normal 0 0 1
    outer loop
      vertex -4.24264 69.0853 4
      vertex -4.32792 69 4
      vertex -4.15736 69 4
    endloop
  endfacet
  facet normal -0 0 1
    outer loop
      vertex 18.5 65 4
      vertex 33.5 24 4
      vertex 33.5 65 4
    endloop
  endfacet
  facet normal -0 0 1
    outer loop
      vertex -0.15736 65 4
      vertex 33.5 24 4
      vertex 18.5 65 4
    endloop
  endfacet
  facet normal -0 0 1
    outer loop
      vertex 3.42352 -0.727691 4
      vertex 9.2924 -1.97516 4
      vertex 9.5 0 4
    endloop
  endfacet
  facet normal 0 0 1
    outer loop
      vertex 33.5 24 4
      vertex 1.75 3.03109 4
      vertex 9.5 0 4
    endloop
  endfacet
  facet normal -0 -0 1
    outer loop
      vertex 3.19741 1.42358 4
      vertex 9.5 0 4
      vertex 2.83156 2.05725 4
    endloop
  endfacet
  facet normal 0 -0 1
    outer loop
      vertex 3.5 0 4
      vertex 9.5 0 4
      vertex 3.42352 0.727691 4
    endloop
  endfacet
  facet normal 0 0 1
    outer loop
      vertex 9.2924 -1.97516 4
      vertex 3.42352 -0.727691 4
      vertex 8.67868 -3.864 4
    endloop
  endfacet
  facet normal 0 0 1
    outer loop
      vertex 8.67868 -3.864 4
      vertex 3.19741 -1.42358 4
      vertex 7.68566 -5.58396 4
    endloop
  endfacet
  facet normal -0 0 1
    outer loop
      vertex 3.19741 -1.42358 4
      vertex 8.67868 -3.864 4
      vertex 3.42352 -0.727691 4
    endloop
  endfacet
  facet normal 0 0 1
    outer loop
      vertex 3.42352 -0.727691 4
      vertex 9.5 0 4
      vertex 3.5 0 4
    endloop
  endfacet
  facet normal -0 -0 1
    outer loop
      vertex 3.42352 0.727691 4
      vertex 9.5 0 4
      vertex 3.19741 1.42358 4
    endloop
  endfacet
  facet normal 0 0 1
    outer loop
      vertex 9.5 0 4
      vertex 2.34196 2.60101 4
      vertex 2.83156 2.05725 4
    endloop
  endfacet
  facet normal 0 0 1
    outer loop
      vertex 9.5 0 4
      vertex 1.75 3.03109 4
      vertex 2.34196 2.60101 4
    endloop
  endfacet
  facet normal 0 0 1
    outer loop
      vertex 33.5 24 4
      vertex 1.08156 3.3287 4
      vertex 1.75 3.03109 4
    endloop
  endfacet
  facet normal 0 -0 1
    outer loop
      vertex 0.365849 3.48083 4
      vertex 33.5 24 4
      vertex -0.15736 65 4
    endloop
  endfacet
  facet normal 0 0 1
    outer loop
      vertex 33.5 24 4
      vertex 0.365849 3.48083 4
      vertex 1.08156 3.3287 4
    endloop
  endfacet
  facet normal 0 0 1
    outer loop
      vertex -0.15736 65 4
      vertex -0.365849 3.48083 4
      vertex 0.365849 3.48083 4
    endloop
  endfacet
  facet normal -0 0 1
    outer loop
      vertex -3.69 65 4
      vertex -0.365849 3.48083 4
      vertex -0.15736 65 4
    endloop
  endfacet
  facet normal -0 0 1
    outer loop
      vertex -6.39 65 4
      vertex -0.365849 3.48083 4
      vertex -3.69 65 4
    endloop
  endfacet
  facet normal 0 0 1
    outer loop
      vertex -0.365849 3.48083 4
      vertex -6.39 65 4
      vertex -1.08156 3.3287 4
    endloop
  endfacet
  facet normal -0 0 1
    outer loop
      vertex -9.5 65 4
      vertex -1.08156 3.3287 4
      vertex -6.39 65 4
    endloop
  endfacet
  facet normal 0 0 1
    outer loop
      vertex -1.08156 3.3287 4
      vertex -9.5 65 4
      vertex -1.75 3.03109 4
    endloop
  endfacet
  facet normal 0 0 1
    outer loop
      vertex -9.5 0 4
      vertex -1.75 3.03109 4
      vertex -9.5 65 4
    endloop
  endfacet
  facet normal 0 0 1
    outer loop
      vertex -1.75 3.03109 4
      vertex -9.5 0 4
      vertex -2.34196 2.60101 4
    endloop
  endfacet
  facet normal 0 0 1
    outer loop
      vertex -3.69 65 4
      vertex -0.15736 65 4
      vertex -3.69 68.5326 4
    endloop
  endfacet
  facet normal -0 0 1
    outer loop
      vertex 2.83156 -2.05725 4
      vertex 7.68566 -5.58396 4
      vertex 3.19741 -1.42358 4
    endloop
  endfacet
  facet normal 0 0 1
    outer loop
      vertex 7.68566 -5.58396 4
      vertex 2.83156 -2.05725 4
      vertex 6.35674 -7.05988 4
    endloop
  endfacet
  facet normal -0 0 1
    outer loop
      vertex 2.34196 -2.60101 4
      vertex 6.35674 -7.05988 4
      vertex 2.83156 -2.05725 4
    endloop
  endfacet
  facet normal 0 0 1
    outer loop
      vertex 6.35674 -7.05988 4
      vertex 2.34196 -2.60101 4
      vertex 4.75 -8.22724 4
    endloop
  endfacet
  facet normal -0 0 1
    outer loop
      vertex 1.75 -3.03109 4
      vertex 4.75 -8.22724 4
      vertex 2.34196 -2.60101 4
    endloop
  endfacet
  facet normal 0 0 1
    outer loop
      vertex 4.75 -8.22724 4
      vertex 1.75 -3.03109 4
      vertex 2.93566 -9.03504 4
    endloop
  endfacet
  facet normal -0 0 1
    outer loop
      vertex 1.08156 -3.3287 4
      vertex 2.93566 -9.03504 4
      vertex 1.75 -3.03109 4
    endloop
  endfacet
  facet normal 0 0 1
    outer loop
      vertex 1.08156 -3.3287 4
      vertex 0.99302 -9.44796 4
      vertex 2.93566 -9.03504 4
    endloop
  endfacet
  facet normal -0 0 1
    outer loop
      vertex 0.365849 -3.48083 4
      vertex 0.99302 -9.44796 4
      vertex 1.08156 -3.3287 4
    endloop
  endfacet
  facet normal -0 0 1
    outer loop
      vertex -0.365849 -3.48083 4
      vertex 0.99302 -9.44796 4
      vertex 0.365849 -3.48083 4
    endloop
  endfacet
  facet normal 0 0 1
    outer loop
      vertex -0.365849 -3.48083 4
      vertex -0.99302 -9.44796 4
      vertex 0.99302 -9.44796 4
    endloop
  endfacet
  facet normal 0 0 1
    outer loop
      vertex -1.08156 -3.3287 4
      vertex -0.99302 -9.44796 4
      vertex -0.365849 -3.48083 4
    endloop
  endfacet
  facet normal 0 0 1
    outer loop
      vertex -2.93566 -9.03504 4
      vertex -1.08156 -3.3287 4
      vertex -1.75 -3.03109 4
    endloop
  endfacet
  facet normal 0 0 1
    outer loop
      vertex -4.75 -8.22724 4
      vertex -1.75 -3.03109 4
      vertex -2.34196 -2.60101 4
    endloop
  endfacet
  facet normal 0 0 1
    outer loop
      vertex -6.35674 -7.05988 4
      vertex -2.34196 -2.60101 4
      vertex -2.83156 -2.05725 4
    endloop
  endfacet
  facet normal 0 0 1
    outer loop
      vertex -1.08156 -3.3287 4
      vertex -2.93566 -9.03504 4
      vertex -0.99302 -9.44796 4
    endloop
  endfacet
  facet normal 0 0 1
    outer loop
      vertex -7.68566 -5.58396 4
      vertex -2.83156 -2.05725 4
      vertex -3.19741 -1.42358 4
    endloop
  endfacet
  facet normal 0 0 1
    outer loop
      vertex -8.67868 -3.864 4
      vertex -3.19741 -1.42358 4
      vertex -3.42352 -0.727691 4
    endloop
  endfacet
  facet normal 0 0 1
    outer loop
      vertex -9.2924 -1.97516 4
      vertex -3.42352 -0.727691 4
      vertex -3.5 0 4
    endloop
  endfacet
  facet normal 0 0 1
    outer loop
      vertex -2.34196 2.60101 4
      vertex -9.5 0 4
      vertex -2.83156 2.05725 4
    endloop
  endfacet
  facet normal 0 0 1
    outer loop
      vertex -1.75 -3.03109 4
      vertex -4.75 -8.22724 4
      vertex -2.93566 -9.03504 4
    endloop
  endfacet
  facet normal 0 0 1
    outer loop
      vertex -2.83156 2.05725 4
      vertex -9.5 0 4
      vertex -3.19741 1.42358 4
    endloop
  endfacet
  facet normal 0 -0 1
    outer loop
      vertex -9.2924 -1.97516 4
      vertex -3.5 0 4
      vertex -9.5 0 4
    endloop
  endfacet
  facet normal 0 0 1
    outer loop
      vertex -3.42352 0.727691 4
      vertex -9.5 0 4
      vertex -3.5 0 4
    endloop
  endfacet
  facet normal 0 0 1
    outer loop
      vertex -2.34196 -2.60101 4
      vertex -6.35674 -7.05988 4
      vertex -4.75 -8.22724 4
    endloop
  endfacet
  facet normal 0 0 1
    outer loop
      vertex -2.83156 -2.05725 4
      vertex -7.68566 -5.58396 4
      vertex -6.35674 -7.05988 4
    endloop
  endfacet
  facet normal 0 0 1
    outer loop
      vertex -3.19741 -1.42358 4
      vertex -8.67868 -3.864 4
      vertex -7.68566 -5.58396 4
    endloop
  endfacet
  facet normal 0 0 1
    outer loop
      vertex -3.19741 1.42358 4
      vertex -9.5 0 4
      vertex -3.42352 0.727691 4
    endloop
  endfacet
  facet normal 0 0 1
    outer loop
      vertex -3.42352 -0.727691 4
      vertex -9.2924 -1.97516 4
      vertex -8.67868 -3.864 4
    endloop
  endfacet
  facet normal -1 0 0
    outer loop
      vertex -9.5 0 0
      vertex -9.5 65 4
      vertex -9.5 65 0
    endloop
  endfacet
  facet normal -1 -0 0
    outer loop
      vertex -9.5 65 4
      vertex -9.5 0 0
      vertex -9.5 0 4
    endloop
  endfacet
  facet normal 0.707107 -0.707107 0
    outer loop
      vertex 9.5 0 4
      vertex 33.5 24 0
      vertex 33.5 24 4
    endloop
  endfacet
  facet normal 0.707107 -0.707107 0
    outer loop
      vertex 33.5 24 0
      vertex 9.5 0 4
      vertex 9.5 0 0
    endloop
  endfacet
  facet normal 0.951057 -0.309016 0
    outer loop
      vertex 8.67868 -3.864 4
      vertex 9.2924 -1.97516 0
      vertex 9.2924 -1.97516 4
    endloop
  endfacet
  facet normal 0.951057 -0.309016 0
    outer loop
      vertex 9.2924 -1.97516 0
      vertex 8.67868 -3.864 4
      vertex 8.67868 -3.864 0
    endloop
  endfacet
  facet normal -0.951057 -0.309016 0
    outer loop
      vertex -8.67868 -3.864 0
      vertex -9.2924 -1.97516 4
      vertex -9.2924 -1.97516 0
    endloop
  endfacet
  facet normal -0.951057 -0.309016 0
    outer loop
      vertex -9.2924 -1.97516 4
      vertex -8.67868 -3.864 0
      vertex -8.67868 -3.864 4
    endloop
  endfacet
  facet normal 0.994522 -0.10453 0
    outer loop
      vertex 9.2924 -1.97516 4
      vertex 9.5 0 0
      vertex 9.5 0 4
    endloop
  endfacet
  facet normal 0.994522 -0.10453 0
    outer loop
      vertex 9.5 0 0
      vertex 9.2924 -1.97516 4
      vertex 9.2924 -1.97516 0
    endloop
  endfacet
  facet normal -0.406738 -0.913545 0
    outer loop
      vertex -4.75 -8.22724 0
      vertex -2.93566 -9.03504 4
      vertex -4.75 -8.22724 4
    endloop
  endfacet
  facet normal -0.406738 -0.913545 -0
    outer loop
      vertex -2.93566 -9.03504 4
      vertex -4.75 -8.22724 0
      vertex -2.93566 -9.03504 0
    endloop
  endfacet
  facet normal -0.994522 -0.10453 0
    outer loop
      vertex -9.2924 -1.97516 0
      vertex -9.5 0 4
      vertex -9.5 0 0
    endloop
  endfacet
  facet normal -0.994522 -0.10453 0
    outer loop
      vertex -9.5 0 4
      vertex -9.2924 -1.97516 0
      vertex -9.2924 -1.97516 4
    endloop
  endfacet
  facet normal -0.743146 -0.669129 0
    outer loop
      vertex -6.35674 -7.05988 0
      vertex -7.68566 -5.58396 4
      vertex -7.68566 -5.58396 0
    endloop
  endfacet
  facet normal -0.743146 -0.669129 0
    outer loop
      vertex -7.68566 -5.58396 4
      vertex -6.35674 -7.05988 0
      vertex -6.35674 -7.05988 4
    endloop
  endfacet
  facet normal 0.743146 -0.669129 0
    outer loop
      vertex 6.35674 -7.05988 4
      vertex 7.68566 -5.58396 0
      vertex 7.68566 -5.58396 4
    endloop
  endfacet
  facet normal 0.743146 -0.669129 0
    outer loop
      vertex 7.68566 -5.58396 0
      vertex 6.35674 -7.05988 4
      vertex 6.35674 -7.05988 0
    endloop
  endfacet
  facet normal 0.866025 -0.5 0
    outer loop
      vertex 7.68566 -5.58396 4
      vertex 8.67868 -3.864 0
      vertex 8.67868 -3.864 4
    endloop
  endfacet
  facet normal 0.866025 -0.5 0
    outer loop
      vertex 8.67868 -3.864 0
      vertex 7.68566 -5.58396 4
      vertex 7.68566 -5.58396 0
    endloop
  endfacet
  facet normal -0.207911 -0.978148 0
    outer loop
      vertex -2.93566 -9.03504 0
      vertex -0.99302 -9.44796 4
      vertex -2.93566 -9.03504 4
    endloop
  endfacet
  facet normal -0.207911 -0.978148 -0
    outer loop
      vertex -0.99302 -9.44796 4
      vertex -2.93566 -9.03504 0
      vertex -0.99302 -9.44796 0
    endloop
  endfacet
  facet normal -0.866025 -0.5 0
    outer loop
      vertex -7.68566 -5.58396 0
      vertex -8.67868 -3.864 4
      vertex -8.67868 -3.864 0
    endloop
  endfacet
  facet normal -0.866025 -0.5 0
    outer loop
      vertex -8.67868 -3.864 4
      vertex -7.68566 -5.58396 0
      vertex -7.68566 -5.58396 4
    endloop
  endfacet
  facet normal -0.587784 -0.809018 0
    outer loop
      vertex -6.35674 -7.05988 0
      vertex -4.75 -8.22724 4
      vertex -6.35674 -7.05988 4
    endloop
  endfacet
  facet normal -0.587784 -0.809018 -0
    outer loop
      vertex -4.75 -8.22724 4
      vertex -6.35674 -7.05988 0
      vertex -4.75 -8.22724 0
    endloop
  endfacet
  facet normal 0 -1 0
    outer loop
      vertex -0.99302 -9.44796 0
      vertex 0.99302 -9.44796 4
      vertex -0.99302 -9.44796 4
    endloop
  endfacet
  facet normal 0 -1 -0
    outer loop
      vertex 0.99302 -9.44796 4
      vertex -0.99302 -9.44796 0
      vertex 0.99302 -9.44796 0
    endloop
  endfacet
  facet normal 0.207911 -0.978148 0
    outer loop
      vertex 0.99302 -9.44796 0
      vertex 2.93566 -9.03504 4
      vertex 0.99302 -9.44796 4
    endloop
  endfacet
  facet normal 0.207911 -0.978148 0
    outer loop
      vertex 2.93566 -9.03504 4
      vertex 0.99302 -9.44796 0
      vertex 2.93566 -9.03504 0
    endloop
  endfacet
  facet normal 0.587784 -0.809018 0
    outer loop
      vertex 4.75 -8.22724 0
      vertex 6.35674 -7.05988 4
      vertex 4.75 -8.22724 4
    endloop
  endfacet
  facet normal 0.587784 -0.809018 0
    outer loop
      vertex 6.35674 -7.05988 4
      vertex 4.75 -8.22724 0
      vertex 6.35674 -7.05988 0
    endloop
  endfacet
  facet normal 0.406738 -0.913545 0
    outer loop
      vertex 2.93566 -9.03504 0
      vertex 4.75 -8.22724 4
      vertex 2.93566 -9.03504 4
    endloop
  endfacet
  facet normal 0.406738 -0.913545 0
    outer loop
      vertex 4.75 -8.22724 4
      vertex 2.93566 -9.03504 0
      vertex 4.75 -8.22724 0
    endloop
  endfacet
  facet normal -0.951056 -0.309019 0
    outer loop
      vertex 3.42352 0.727691 0
      vertex 3.19741 1.42358 4
      vertex 3.19741 1.42358 0
    endloop
  endfacet
  facet normal -0.951056 -0.309019 0
    outer loop
      vertex 3.19741 1.42358 4
      vertex 3.42352 0.727691 0
      vertex 3.42352 0.727691 4
    endloop
  endfacet
  facet normal -0.994522 -0.104524 0
    outer loop
      vertex 3.5 0 0
      vertex 3.42352 0.727691 4
      vertex 3.42352 0.727691 0
    endloop
  endfacet
  facet normal -0.994522 -0.104524 0
    outer loop
      vertex 3.42352 0.727691 4
      vertex 3.5 0 0
      vertex 3.5 0 4
    endloop
  endfacet
  facet normal -0.866025 -0.5 0
    outer loop
      vertex 3.19741 1.42358 0
      vertex 2.83156 2.05725 4
      vertex 2.83156 2.05725 0
    endloop
  endfacet
  facet normal -0.866025 -0.5 0
    outer loop
      vertex 2.83156 2.05725 4
      vertex 3.19741 1.42358 0
      vertex 3.19741 1.42358 4
    endloop
  endfacet
  facet normal 0.406738 -0.913545 0
    outer loop
      vertex -1.75 3.03109 0
      vertex -1.08156 3.3287 4
      vertex -1.75 3.03109 4
    endloop
  endfacet
  facet normal 0.406738 -0.913545 0
    outer loop
      vertex -1.08156 3.3287 4
      vertex -1.75 3.03109 0
      vertex -1.08156 3.3287 0
    endloop
  endfacet
  facet normal -0.406738 -0.913545 0
    outer loop
      vertex 1.08156 3.3287 0
      vertex 1.75 3.03109 4
      vertex 1.08156 3.3287 4
    endloop
  endfacet
  facet normal -0.406738 -0.913545 -0
    outer loop
      vertex 1.75 3.03109 4
      vertex 1.08156 3.3287 0
      vertex 1.75 3.03109 0
    endloop
  endfacet
  facet normal -0.994522 0.104524 0
    outer loop
      vertex 3.42352 -0.727691 0
      vertex 3.5 0 4
      vertex 3.5 0 0
    endloop
  endfacet
  facet normal -0.994522 0.104524 0
    outer loop
      vertex 3.5 0 4
      vertex 3.42352 -0.727691 0
      vertex 3.42352 -0.727691 4
    endloop
  endfacet
  facet normal 0.743147 -0.669128 0
    outer loop
      vertex -2.83156 2.05725 4
      vertex -2.34196 2.60101 0
      vertex -2.34196 2.60101 4
    endloop
  endfacet
  facet normal 0.743147 -0.669128 0
    outer loop
      vertex -2.34196 2.60101 0
      vertex -2.83156 2.05725 4
      vertex -2.83156 2.05725 0
    endloop
  endfacet
  facet normal 0.587782 -0.80902 0
    outer loop
      vertex -2.34196 2.60101 0
      vertex -1.75 3.03109 4
      vertex -2.34196 2.60101 4
    endloop
  endfacet
  facet normal 0.587782 -0.80902 0
    outer loop
      vertex -1.75 3.03109 4
      vertex -2.34196 2.60101 0
      vertex -1.75 3.03109 0
    endloop
  endfacet
  facet normal -0.743147 -0.669128 0
    outer loop
      vertex 2.83156 2.05725 0
      vertex 2.34196 2.60101 4
      vertex 2.34196 2.60101 0
    endloop
  endfacet
  facet normal -0.743147 -0.669128 0
    outer loop
      vertex 2.34196 2.60101 4
      vertex 2.83156 2.05725 0
      vertex 2.83156 2.05725 4
    endloop
  endfacet
  facet normal 0 1 -0
    outer loop
      vertex 0.365849 -3.48083 0
      vertex -0.365849 -3.48083 4
      vertex 0.365849 -3.48083 4
    endloop
  endfacet
  facet normal 0 1 0
    outer loop
      vertex -0.365849 -3.48083 4
      vertex 0.365849 -3.48083 0
      vertex -0.365849 -3.48083 0
    endloop
  endfacet
  facet normal -0.951056 0.309019 0
    outer loop
      vertex 3.19741 -1.42358 0
      vertex 3.42352 -0.727691 4
      vertex 3.42352 -0.727691 0
    endloop
  endfacet
  facet normal -0.951056 0.309019 0
    outer loop
      vertex 3.42352 -0.727691 4
      vertex 3.19741 -1.42358 0
      vertex 3.19741 -1.42358 4
    endloop
  endfacet
  facet normal 0.406738 0.913545 -0
    outer loop
      vertex -1.08156 -3.3287 0
      vertex -1.75 -3.03109 4
      vertex -1.08156 -3.3287 4
    endloop
  endfacet
  facet normal 0.406738 0.913545 0
    outer loop
      vertex -1.75 -3.03109 4
      vertex -1.08156 -3.3287 0
      vertex -1.75 -3.03109 0
    endloop
  endfacet
  facet normal 0.866025 0.5 0
    outer loop
      vertex -2.83156 -2.05725 4
      vertex -3.19741 -1.42358 0
      vertex -3.19741 -1.42358 4
    endloop
  endfacet
  facet normal 0.866025 0.5 0
    outer loop
      vertex -3.19741 -1.42358 0
      vertex -2.83156 -2.05725 4
      vertex -2.83156 -2.05725 0
    endloop
  endfacet
  facet normal 0.951056 -0.309019 0
    outer loop
      vertex -3.42352 0.727691 4
      vertex -3.19741 1.42358 0
      vertex -3.19741 1.42358 4
    endloop
  endfacet
  facet normal 0.951056 -0.309019 0
    outer loop
      vertex -3.19741 1.42358 0
      vertex -3.42352 0.727691 4
      vertex -3.42352 0.727691 0
    endloop
  endfacet
  facet normal 0.207913 0.978147 -0
    outer loop
      vertex -0.365849 -3.48083 0
      vertex -1.08156 -3.3287 4
      vertex -0.365849 -3.48083 4
    endloop
  endfacet
  facet normal 0.207913 0.978147 0
    outer loop
      vertex -1.08156 -3.3287 4
      vertex -0.365849 -3.48083 0
      vertex -1.08156 -3.3287 0
    endloop
  endfacet
  facet normal 0.951056 0.309019 0
    outer loop
      vertex -3.19741 -1.42358 4
      vertex -3.42352 -0.727691 0
      vertex -3.42352 -0.727691 4
    endloop
  endfacet
  facet normal 0.951056 0.309019 0
    outer loop
      vertex -3.42352 -0.727691 0
      vertex -3.19741 -1.42358 4
      vertex -3.19741 -1.42358 0
    endloop
  endfacet
  facet normal 0.994522 -0.104524 0
    outer loop
      vertex -3.5 0 4
      vertex -3.42352 0.727691 0
      vertex -3.42352 0.727691 4
    endloop
  endfacet
  facet normal 0.994522 -0.104524 0
    outer loop
      vertex -3.42352 0.727691 0
      vertex -3.5 0 4
      vertex -3.5 0 0
    endloop
  endfacet
  facet normal 0 -1 0
    outer loop
      vertex -0.365849 3.48083 0
      vertex 0.365849 3.48083 4
      vertex -0.365849 3.48083 4
    endloop
  endfacet
  facet normal 0 -1 -0
    outer loop
      vertex 0.365849 3.48083 4
      vertex -0.365849 3.48083 0
      vertex 0.365849 3.48083 0
    endloop
  endfacet
  facet normal -0.743147 0.669128 0
    outer loop
      vertex 2.34196 -2.60101 0
      vertex 2.83156 -2.05725 4
      vertex 2.83156 -2.05725 0
    endloop
  endfacet
  facet normal -0.743147 0.669128 0
    outer loop
      vertex 2.83156 -2.05725 4
      vertex 2.34196 -2.60101 0
      vertex 2.34196 -2.60101 4
    endloop
  endfacet
  facet normal -0.207913 0.978147 0
    outer loop
      vertex 1.08156 -3.3287 0
      vertex 0.365849 -3.48083 4
      vertex 1.08156 -3.3287 4
    endloop
  endfacet
  facet normal -0.207913 0.978147 0
    outer loop
      vertex 0.365849 -3.48083 4
      vertex 1.08156 -3.3287 0
      vertex 0.365849 -3.48083 0
    endloop
  endfacet
  facet normal -0.866025 0.5 0
    outer loop
      vertex 2.83156 -2.05725 0
      vertex 3.19741 -1.42358 4
      vertex 3.19741 -1.42358 0
    endloop
  endfacet
  facet normal -0.866025 0.5 0
    outer loop
      vertex 3.19741 -1.42358 4
      vertex 2.83156 -2.05725 0
      vertex 2.83156 -2.05725 4
    endloop
  endfacet
  facet normal -0.207913 -0.978147 0
    outer loop
      vertex 0.365849 3.48083 0
      vertex 1.08156 3.3287 4
      vertex 0.365849 3.48083 4
    endloop
  endfacet
  facet normal -0.207913 -0.978147 -0
    outer loop
      vertex 1.08156 3.3287 4
      vertex 0.365849 3.48083 0
      vertex 1.08156 3.3287 0
    endloop
  endfacet
  facet normal -0.587782 0.80902 0
    outer loop
      vertex 2.34196 -2.60101 0
      vertex 1.75 -3.03109 4
      vertex 2.34196 -2.60101 4
    endloop
  endfacet
  facet normal -0.587782 0.80902 0
    outer loop
      vertex 1.75 -3.03109 4
      vertex 2.34196 -2.60101 0
      vertex 1.75 -3.03109 0
    endloop
  endfacet
  facet normal -0.587782 -0.80902 0
    outer loop
      vertex 1.75 3.03109 0
      vertex 2.34196 2.60101 4
      vertex 1.75 3.03109 4
    endloop
  endfacet
  facet normal -0.587782 -0.80902 -0
    outer loop
      vertex 2.34196 2.60101 4
      vertex 1.75 3.03109 0
      vertex 2.34196 2.60101 0
    endloop
  endfacet
  facet normal 0.207913 -0.978147 0
    outer loop
      vertex -1.08156 3.3287 0
      vertex -0.365849 3.48083 4
      vertex -1.08156 3.3287 4
    endloop
  endfacet
  facet normal 0.207913 -0.978147 0
    outer loop
      vertex -0.365849 3.48083 4
      vertex -1.08156 3.3287 0
      vertex -0.365849 3.48083 0
    endloop
  endfacet
  facet normal 0.994522 0.104524 0
    outer loop
      vertex -3.42352 -0.727691 4
      vertex -3.5 0 0
      vertex -3.5 0 4
    endloop
  endfacet
  facet normal 0.994522 0.104524 0
    outer loop
      vertex -3.5 0 0
      vertex -3.42352 -0.727691 4
      vertex -3.42352 -0.727691 0
    endloop
  endfacet
  facet normal -0.406738 0.913545 0
    outer loop
      vertex 1.75 -3.03109 0
      vertex 1.08156 -3.3287 4
      vertex 1.75 -3.03109 4
    endloop
  endfacet
  facet normal -0.406738 0.913545 0
    outer loop
      vertex 1.08156 -3.3287 4
      vertex 1.75 -3.03109 0
      vertex 1.08156 -3.3287 0
    endloop
  endfacet
  facet normal 0.743147 0.669128 0
    outer loop
      vertex -2.34196 -2.60101 4
      vertex -2.83156 -2.05725 0
      vertex -2.83156 -2.05725 4
    endloop
  endfacet
  facet normal 0.743147 0.669128 0
    outer loop
      vertex -2.83156 -2.05725 0
      vertex -2.34196 -2.60101 4
      vertex -2.34196 -2.60101 0
    endloop
  endfacet
  facet normal 0.587782 0.80902 -0
    outer loop
      vertex -1.75 -3.03109 0
      vertex -2.34196 -2.60101 4
      vertex -1.75 -3.03109 4
    endloop
  endfacet
  facet normal 0.587782 0.80902 0
    outer loop
      vertex -2.34196 -2.60101 4
      vertex -1.75 -3.03109 0
      vertex -2.34196 -2.60101 0
    endloop
  endfacet
  facet normal 0.866025 -0.5 0
    outer loop
      vertex -3.19741 1.42358 4
      vertex -2.83156 2.05725 0
      vertex -2.83156 2.05725 4
    endloop
  endfacet
  facet normal 0.866025 -0.5 0
    outer loop
      vertex -2.83156 2.05725 0
      vertex -3.19741 1.42358 4
      vertex -3.19741 1.42358 0
    endloop
  endfacet
  facet normal 0.70719 0.707024 0
    outer loop
      vertex -4.15736 69 4
      vertex -4.24264 69.0853 0
      vertex -4.24264 69.0853 4
    endloop
  endfacet
  facet normal 0.70719 0.707024 0
    outer loop
      vertex -4.24264 69.0853 0
      vertex -4.15736 69 4
      vertex -4.15736 69 0
    endloop
  endfacet
  facet normal 0.707103 0.707111 -0
    outer loop
      vertex -0.15736 65 0
      vertex -3.69 68.5326 4
      vertex -0.15736 65 4
    endloop
  endfacet
  facet normal 0.707103 0.707111 0
    outer loop
      vertex -3.69 68.5326 4
      vertex -0.15736 65 0
      vertex -3.69 68.5326 0
    endloop
  endfacet
  facet normal -0.70719 0.707024 0
    outer loop
      vertex -4.32792 69 0
      vertex -4.24264 69.0853 4
      vertex -4.24264 69.0853 0
    endloop
  endfacet
  facet normal -0.70719 0.707024 0
    outer loop
      vertex -4.24264 69.0853 4
      vertex -4.32792 69 0
      vertex -4.32792 69 4
    endloop
  endfacet
  facet normal 0 -0 1
    outer loop
      vertex -4.24264 213.915 4
      vertex -4.15736 214 4
      vertex -4.32792 214 4
    endloop
  endfacet
  facet normal 0 0 1
    outer loop
      vertex 9.2924 284.975 4
      vertex 3.42352 283.728 4
      vertex 3.5 283 4
    endloop
  endfacet
  facet normal 0 0 1
    outer loop
      vertex 6.35674 290.06 4
      vertex 3.19741 284.424 4
      vertex 3.42352 283.728 4
    endloop
  endfacet
  facet normal 0 0 1
    outer loop
      vertex 1.75 286.031 4
      vertex 4.75 291.227 4
      vertex 2.93566 292.035 4
    endloop
  endfacet
  facet normal 0 0 1
    outer loop
      vertex 6.35674 290.06 4
      vertex 2.83156 285.057 4
      vertex 3.19741 284.424 4
    endloop
  endfacet
  facet normal 0 0 1
    outer loop
      vertex 6.35674 290.06 4
      vertex 2.34196 285.601 4
      vertex 2.83156 285.057 4
    endloop
  endfacet
  facet normal 0 0 1
    outer loop
      vertex 4.75 291.227 4
      vertex 1.75 286.031 4
      vertex 2.34196 285.601 4
    endloop
  endfacet
  facet normal 0 0 1
    outer loop
      vertex 2.93566 292.035 4
      vertex 1.08156 286.329 4
      vertex 1.75 286.031 4
    endloop
  endfacet
  facet normal 0 0 1
    outer loop
      vertex 0.99302 292.448 4
      vertex 1.08156 286.329 4
      vertex 2.93566 292.035 4
    endloop
  endfacet
  facet normal 0 0 1
    outer loop
      vertex 0.99302 292.448 4
      vertex 0.365849 286.481 4
      vertex 1.08156 286.329 4
    endloop
  endfacet
  facet normal 0 0 1
    outer loop
      vertex 0.99302 292.448 4
      vertex -0.365849 286.481 4
      vertex 0.365849 286.481 4
    endloop
  endfacet
  facet normal -0 0 1
    outer loop
      vertex -0.99302 292.448 4
      vertex -0.365849 286.481 4
      vertex 0.99302 292.448 4
    endloop
  endfacet
  facet normal 0 0 1
    outer loop
      vertex -0.99302 292.448 4
      vertex -1.08156 286.329 4
      vertex -0.365849 286.481 4
    endloop
  endfacet
  facet normal -0 0 1
    outer loop
      vertex -2.93566 292.035 4
      vertex -1.08156 286.329 4
      vertex -0.99302 292.448 4
    endloop
  endfacet
  facet normal 0 0 1
    outer loop
      vertex -1.08156 286.329 4
      vertex -2.93566 292.035 4
      vertex -1.75 286.031 4
    endloop
  endfacet
  facet normal -0 0 1
    outer loop
      vertex -4.75 291.227 4
      vertex -1.75 286.031 4
      vertex -2.93566 292.035 4
    endloop
  endfacet
  facet normal 0 0 1
    outer loop
      vertex -1.75 286.031 4
      vertex -4.75 291.227 4
      vertex -2.34196 285.601 4
    endloop
  endfacet
  facet normal -0 0 1
    outer loop
      vertex -6.35674 290.06 4
      vertex -2.34196 285.601 4
      vertex -4.75 291.227 4
    endloop
  endfacet
  facet normal 0 0 1
    outer loop
      vertex -2.34196 285.601 4
      vertex -6.35674 290.06 4
      vertex -2.83156 285.057 4
    endloop
  endfacet
  facet normal -0 0 1
    outer loop
      vertex -7.68566 288.584 4
      vertex -2.83156 285.057 4
      vertex -6.35674 290.06 4
    endloop
  endfacet
  facet normal 0 0 1
    outer loop
      vertex -2.83156 285.057 4
      vertex -7.68566 288.584 4
      vertex -3.19741 284.424 4
    endloop
  endfacet
  facet normal 0 0 1
    outer loop
      vertex -3.19741 284.424 4
      vertex -8.67868 286.864 4
      vertex -3.42352 283.728 4
    endloop
  endfacet
  facet normal -0 0 1
    outer loop
      vertex -9.2924 284.975 4
      vertex -3.42352 283.728 4
      vertex -8.67868 286.864 4
    endloop
  endfacet
  facet normal 0 0 1
    outer loop
      vertex -9.5 218 4
      vertex -3.42352 282.272 4
      vertex -9.5 283 4
    endloop
  endfacet
  facet normal 0 0 1
    outer loop
      vertex -3.42352 283.728 4
      vertex -9.2924 284.975 4
      vertex -3.5 283 4
    endloop
  endfacet
  facet normal 0 0 1
    outer loop
      vertex -9.5 283 4
      vertex -3.5 283 4
      vertex -9.2924 284.975 4
    endloop
  endfacet
  facet normal 0 0 1
    outer loop
      vertex -3.5 283 4
      vertex -9.5 283 4
      vertex -3.42352 282.272 4
    endloop
  endfacet
  facet normal 0 0 1
    outer loop
      vertex -3.42352 282.272 4
      vertex -6.39 218 4
      vertex -3.69 218 4
    endloop
  endfacet
  facet normal 0 0 1
    outer loop
      vertex -3.42352 282.272 4
      vertex -9.5 218 4
      vertex -6.39 218 4
    endloop
  endfacet
  facet normal 0 0 1
    outer loop
      vertex 33.5 259 4
      vertex 18.5 218 4
      vertex 33.5 218 4
    endloop
  endfacet
  facet normal -0 0 1
    outer loop
      vertex 1.75 279.969 4
      vertex 33.5 259 4
      vertex 9.5 283 4
    endloop
  endfacet
  facet normal 0 0 1
    outer loop
      vertex 3.42352 283.728 4
      vertex 9.2924 284.975 4
      vertex 8.67868 286.864 4
    endloop
  endfacet
  facet normal 0 0 1
    outer loop
      vertex 9.2924 284.975 4
      vertex 3.5 283 4
      vertex 9.5 283 4
    endloop
  endfacet
  facet normal 0 0 1
    outer loop
      vertex 3.42352 283.728 4
      vertex 8.67868 286.864 4
      vertex 7.68566 288.584 4
    endloop
  endfacet
  facet normal 0 0 1
    outer loop
      vertex 3.42352 283.728 4
      vertex 7.68566 288.584 4
      vertex 6.35674 290.06 4
    endloop
  endfacet
  facet normal 0 0 1
    outer loop
      vertex 2.34196 285.601 4
      vertex 6.35674 290.06 4
      vertex 4.75 291.227 4
    endloop
  endfacet
  facet normal 0 0 1
    outer loop
      vertex 9.5 283 4
      vertex 3.5 283 4
      vertex 3.42352 282.272 4
    endloop
  endfacet
  facet normal 0 0 1
    outer loop
      vertex 9.5 283 4
      vertex 3.42352 282.272 4
      vertex 3.19741 281.576 4
    endloop
  endfacet
  facet normal 0 0 1
    outer loop
      vertex 9.5 283 4
      vertex 3.19741 281.576 4
      vertex 2.83156 280.943 4
    endloop
  endfacet
  facet normal 0 0 1
    outer loop
      vertex 2.34196 280.399 4
      vertex 9.5 283 4
      vertex 2.83156 280.943 4
    endloop
  endfacet
  facet normal 0 0 1
    outer loop
      vertex 1.75 279.969 4
      vertex 9.5 283 4
      vertex 2.34196 280.399 4
    endloop
  endfacet
  facet normal -0 0 1
    outer loop
      vertex 1.08156 279.671 4
      vertex 33.5 259 4
      vertex 1.75 279.969 4
    endloop
  endfacet
  facet normal -0 0 1
    outer loop
      vertex 0.365849 279.519 4
      vertex 33.5 259 4
      vertex 1.08156 279.671 4
    endloop
  endfacet
  facet normal 0 0 1
    outer loop
      vertex 33.5 259 4
      vertex 0.365849 279.519 4
      vertex -0.15736 218 4
    endloop
  endfacet
  facet normal 0 0 1
    outer loop
      vertex 33.5 259 4
      vertex -0.15736 218 4
      vertex 18.5 218 4
    endloop
  endfacet
  facet normal -0 0 1
    outer loop
      vertex -0.365849 279.519 4
      vertex -0.15736 218 4
      vertex 0.365849 279.519 4
    endloop
  endfacet
  facet normal 0 0 1
    outer loop
      vertex -3.69 218 4
      vertex -0.365849 279.519 4
      vertex -1.08156 279.671 4
    endloop
  endfacet
  facet normal 0 0 1
    outer loop
      vertex -3.69 218 4
      vertex -1.08156 279.671 4
      vertex -1.75 279.969 4
    endloop
  endfacet
  facet normal 0 0 1
    outer loop
      vertex -3.69 218 4
      vertex -1.75 279.969 4
      vertex -2.34196 280.399 4
    endloop
  endfacet
  facet normal 0 0 1
    outer loop
      vertex -3.69 218 4
      vertex -2.34196 280.399 4
      vertex -2.83156 280.943 4
    endloop
  endfacet
  facet normal 0 0 1
    outer loop
      vertex -3.69 218 4
      vertex -2.83156 280.943 4
      vertex -3.19741 281.576 4
    endloop
  endfacet
  facet normal 0 0 1
    outer loop
      vertex -3.69 218 4
      vertex -3.19741 281.576 4
      vertex -3.42352 282.272 4
    endloop
  endfacet
  facet normal -0 0 1
    outer loop
      vertex -8.67868 286.864 4
      vertex -3.19741 284.424 4
      vertex -7.68566 288.584 4
    endloop
  endfacet
  facet normal 0 0 1
    outer loop
      vertex -0.365849 279.519 4
      vertex -3.69 218 4
      vertex -0.15736 218 4
    endloop
  endfacet
  facet normal 0 0 1
    outer loop
      vertex -0.15736 218 4
      vertex -3.69 218 4
      vertex -3.69 214.467 4
    endloop
  endfacet
  facet normal -1 0 0
    outer loop
      vertex -9.5 218 0
      vertex -9.5 283 4
      vertex -9.5 283 0
    endloop
  endfacet
  facet normal -1 -0 0
    outer loop
      vertex -9.5 283 4
      vertex -9.5 218 0
      vertex -9.5 218 4
    endloop
  endfacet
  facet normal 0.707107 0.707107 0
    outer loop
      vertex 33.5 259 4
      vertex 9.5 283 0
      vertex 9.5 283 4
    endloop
  endfacet
  facet normal 0.707107 0.707107 0
    outer loop
      vertex 9.5 283 0
      vertex 33.5 259 4
      vertex 33.5 259 0
    endloop
  endfacet
  facet normal 0.951064 0.308993 0
    outer loop
      vertex 9.2924 284.975 4
      vertex 8.67868 286.864 0
      vertex 8.67868 286.864 4
    endloop
  endfacet
  facet normal 0.951064 0.308993 0
    outer loop
      vertex 8.67868 286.864 0
      vertex 9.2924 284.975 4
      vertex 9.2924 284.975 0
    endloop
  endfacet
  facet normal -0.951064 0.308993 0
    outer loop
      vertex -9.2924 284.975 0
      vertex -8.67868 286.864 4
      vertex -8.67868 286.864 0
    endloop
  endfacet
  facet normal -0.951064 0.308993 0
    outer loop
      vertex -8.67868 286.864 4
      vertex -9.2924 284.975 0
      vertex -9.2924 284.975 4
    endloop
  endfacet
  facet normal 0.994521 0.104538 0
    outer loop
      vertex 9.5 283 4
      vertex 9.2924 284.975 0
      vertex 9.2924 284.975 4
    endloop
  endfacet
  facet normal 0.994521 0.104538 0
    outer loop
      vertex 9.2924 284.975 0
      vertex 9.5 283 4
      vertex 9.5 283 0
    endloop
  endfacet
  facet normal -0.406822 0.913507 0
    outer loop
      vertex -2.93566 292.035 0
      vertex -4.75 291.227 4
      vertex -2.93566 292.035 4
    endloop
  endfacet
  facet normal -0.406822 0.913507 0
    outer loop
      vertex -4.75 291.227 4
      vertex -2.93566 292.035 0
      vertex -4.75 291.227 0
    endloop
  endfacet
  facet normal -0.994521 0.104538 0
    outer loop
      vertex -9.5 283 0
      vertex -9.2924 284.975 4
      vertex -9.2924 284.975 0
    endloop
  endfacet
  facet normal -0.994521 0.104538 0
    outer loop
      vertex -9.2924 284.975 4
      vertex -9.5 283 0
      vertex -9.5 283 4
    endloop
  endfacet
  facet normal -0.743164 0.669109 0
    outer loop
      vertex -7.68566 288.584 0
      vertex -6.35674 290.06 4
      vertex -6.35674 290.06 0
    endloop
  endfacet
  facet normal -0.743164 0.669109 0
    outer loop
      vertex -6.35674 290.06 4
      vertex -7.68566 288.584 0
      vertex -7.68566 288.584 4
    endloop
  endfacet
  facet normal 0.743164 0.669109 0
    outer loop
      vertex 7.68566 288.584 4
      vertex 6.35674 290.06 0
      vertex 6.35674 290.06 4
    endloop
  endfacet
  facet normal 0.743164 0.669109 0
    outer loop
      vertex 6.35674 290.06 0
      vertex 7.68566 288.584 4
      vertex 7.68566 288.584 0
    endloop
  endfacet
  facet normal 0.86603 0.499992 0
    outer loop
      vertex 8.67868 286.864 4
      vertex 7.68566 288.584 0
      vertex 7.68566 288.584 4
    endloop
  endfacet
  facet normal 0.86603 0.499992 0
    outer loop
      vertex 7.68566 288.584 0
      vertex 8.67868 286.864 4
      vertex 8.67868 286.864 0
    endloop
  endfacet
  facet normal -0.20795 0.978139 0
    outer loop
      vertex -0.99302 292.448 0
      vertex -2.93566 292.035 4
      vertex -0.99302 292.448 4
    endloop
  endfacet
  facet normal -0.20795 0.978139 0
    outer loop
      vertex -2.93566 292.035 4
      vertex -0.99302 292.448 0
      vertex -2.93566 292.035 0
    endloop
  endfacet
  facet normal -0.86603 0.499992 0
    outer loop
      vertex -8.67868 286.864 0
      vertex -7.68566 288.584 4
      vertex -7.68566 288.584 0
    endloop
  endfacet
  facet normal -0.86603 0.499992 0
    outer loop
      vertex -7.68566 288.584 4
      vertex -8.67868 286.864 0
      vertex -8.67868 286.864 4
    endloop
  endfacet
  facet normal -0.587665 0.809104 0
    outer loop
      vertex -4.75 291.227 0
      vertex -6.35674 290.06 4
      vertex -4.75 291.227 4
    endloop
  endfacet
  facet normal -0.587665 0.809104 0
    outer loop
      vertex -6.35674 290.06 4
      vertex -4.75 291.227 0
      vertex -6.35674 290.06 0
    endloop
  endfacet
  facet normal 0 1 -0
    outer loop
      vertex 0.99302 292.448 0
      vertex -0.99302 292.448 4
      vertex 0.99302 292.448 4
    endloop
  endfacet
  facet normal 0 1 0
    outer loop
      vertex -0.99302 292.448 4
      vertex 0.99302 292.448 0
      vertex -0.99302 292.448 0
    endloop
  endfacet
  facet normal 0.20795 0.978139 -0
    outer loop
      vertex 2.93566 292.035 0
      vertex 0.99302 292.448 4
      vertex 2.93566 292.035 4
    endloop
  endfacet
  facet normal 0.20795 0.978139 0
    outer loop
      vertex 0.99302 292.448 4
      vertex 2.93566 292.035 0
      vertex 0.99302 292.448 0
    endloop
  endfacet
  facet normal 0.587665 0.809104 -0
    outer loop
      vertex 6.35674 290.06 0
      vertex 4.75 291.227 4
      vertex 6.35674 290.06 4
    endloop
  endfacet
  facet normal 0.587665 0.809104 0
    outer loop
      vertex 4.75 291.227 4
      vertex 6.35674 290.06 0
      vertex 4.75 291.227 0
    endloop
  endfacet
  facet normal 0.406822 0.913507 -0
    outer loop
      vertex 4.75 291.227 0
      vertex 2.93566 292.035 4
      vertex 4.75 291.227 4
    endloop
  endfacet
  facet normal 0.406822 0.913507 0
    outer loop
      vertex 2.93566 292.035 4
      vertex 4.75 291.227 0
      vertex 2.93566 292.035 0
    endloop
  endfacet
  facet normal -0.95107 0.308975 0
    outer loop
      vertex 3.19741 281.576 0
      vertex 3.42352 282.272 4
      vertex 3.42352 282.272 0
    endloop
  endfacet
  facet normal -0.95107 0.308975 0
    outer loop
      vertex 3.42352 282.272 4
      vertex 3.19741 281.576 0
      vertex 3.19741 281.576 4
    endloop
  endfacet
  facet normal -0.994527 0.10448 0
    outer loop
      vertex 3.42352 282.272 0
      vertex 3.5 283 4
      vertex 3.5 283 0
    endloop
  endfacet
  facet normal -0.994527 0.10448 0
    outer loop
      vertex 3.5 283 4
      vertex 3.42352 282.272 0
      vertex 3.42352 282.272 4
    endloop
  endfacet
  facet normal -0.865796 0.500397 0
    outer loop
      vertex 2.83156 280.943 0
      vertex 3.19741 281.576 4
      vertex 3.19741 281.576 0
    endloop
  endfacet
  facet normal -0.865796 0.500397 0
    outer loop
      vertex 3.19741 281.576 4
      vertex 2.83156 280.943 0
      vertex 2.83156 280.943 4
    endloop
  endfacet
  facet normal 0.407183 0.913347 -0
    outer loop
      vertex -1.08156 279.671 0
      vertex -1.75 279.969 4
      vertex -1.08156 279.671 4
    endloop
  endfacet
  facet normal 0.407183 0.913347 0
    outer loop
      vertex -1.75 279.969 4
      vertex -1.08156 279.671 0
      vertex -1.75 279.969 0
    endloop
  endfacet
  facet normal -0.407183 0.913347 0
    outer loop
      vertex 1.75 279.969 0
      vertex 1.08156 279.671 4
      vertex 1.75 279.969 4
    endloop
  endfacet
  facet normal -0.407183 0.913347 0
    outer loop
      vertex 1.08156 279.671 4
      vertex 1.75 279.969 0
      vertex 1.08156 279.671 0
    endloop
  endfacet
  facet normal -0.994527 -0.10448 0
    outer loop
      vertex 3.5 283 0
      vertex 3.42352 283.728 4
      vertex 3.42352 283.728 0
    endloop
  endfacet
  facet normal -0.994527 -0.10448 0
    outer loop
      vertex 3.42352 283.728 4
      vertex 3.5 283 0
      vertex 3.5 283 4
    endloop
  endfacet
  facet normal 0.743294 0.668965 0
    outer loop
      vertex -2.34196 280.399 4
      vertex -2.83156 280.943 0
      vertex -2.83156 280.943 4
    endloop
  endfacet
  facet normal 0.743294 0.668965 0
    outer loop
      vertex -2.83156 280.943 0
      vertex -2.34196 280.399 4
      vertex -2.34196 280.399 0
    endloop
  endfacet
  facet normal 0.58771 0.809072 -0
    outer loop
      vertex -1.75 279.969 0
      vertex -2.34196 280.399 4
      vertex -1.75 279.969 4
    endloop
  endfacet
  facet normal 0.58771 0.809072 0
    outer loop
      vertex -2.34196 280.399 4
      vertex -1.75 279.969 0
      vertex -2.34196 280.399 0
    endloop
  endfacet
  facet normal -0.743294 0.668965 0
    outer loop
      vertex 2.34196 280.399 0
      vertex 2.83156 280.943 4
      vertex 2.83156 280.943 0
    endloop
  endfacet
  facet normal -0.743294 0.668965 0
    outer loop
      vertex 2.83156 280.943 4
      vertex 2.34196 280.399 0
      vertex 2.34196 280.399 4
    endloop
  endfacet
  facet normal 0 -1 0
    outer loop
      vertex -0.365849 286.481 0
      vertex 0.365849 286.481 4
      vertex -0.365849 286.481 4
    endloop
  endfacet
  facet normal 0 -1 -0
    outer loop
      vertex 0.365849 286.481 4
      vertex -0.365849 286.481 0
      vertex 0.365849 286.481 0
    endloop
  endfacet
  facet normal -0.95107 -0.308975 0
    outer loop
      vertex 3.42352 283.728 0
      vertex 3.19741 284.424 4
      vertex 3.19741 284.424 0
    endloop
  endfacet
  facet normal -0.95107 -0.308975 0
    outer loop
      vertex 3.19741 284.424 4
      vertex 3.42352 283.728 0
      vertex 3.42352 283.728 4
    endloop
  endfacet
  facet normal 0.407183 -0.913347 0
    outer loop
      vertex -1.75 286.031 0
      vertex -1.08156 286.329 4
      vertex -1.75 286.031 4
    endloop
  endfacet
  facet normal 0.407183 -0.913347 0
    outer loop
      vertex -1.08156 286.329 4
      vertex -1.75 286.031 0
      vertex -1.08156 286.329 0
    endloop
  endfacet
  facet normal 0.865796 -0.500397 0
    outer loop
      vertex -3.19741 284.424 4
      vertex -2.83156 285.057 0
      vertex -2.83156 285.057 4
    endloop
  endfacet
  facet normal 0.865796 -0.500397 0
    outer loop
      vertex -2.83156 285.057 0
      vertex -3.19741 284.424 4
      vertex -3.19741 284.424 0
    endloop
  endfacet
  facet normal 0.95107 0.308975 0
    outer loop
      vertex -3.19741 281.576 4
      vertex -3.42352 282.272 0
      vertex -3.42352 282.272 4
    endloop
  endfacet
  facet normal 0.95107 0.308975 0
    outer loop
      vertex -3.42352 282.272 0
      vertex -3.19741 281.576 4
      vertex -3.19741 281.576 0
    endloop
  endfacet
  facet normal 0.207743 -0.978183 0
    outer loop
      vertex -1.08156 286.329 0
      vertex -0.365849 286.481 4
      vertex -1.08156 286.329 4
    endloop
  endfacet
  facet normal 0.207743 -0.978183 0
    outer loop
      vertex -0.365849 286.481 4
      vertex -1.08156 286.329 0
      vertex -0.365849 286.481 0
    endloop
  endfacet
  facet normal 0.95107 -0.308975 0
    outer loop
      vertex -3.42352 283.728 4
      vertex -3.19741 284.424 0
      vertex -3.19741 284.424 4
    endloop
  endfacet
  facet normal 0.95107 -0.308975 0
    outer loop
      vertex -3.19741 284.424 0
      vertex -3.42352 283.728 4
      vertex -3.42352 283.728 0
    endloop
  endfacet
  facet normal 0.994527 0.10448 0
    outer loop
      vertex -3.42352 282.272 4
      vertex -3.5 283 0
      vertex -3.5 283 4
    endloop
  endfacet
  facet normal 0.994527 0.10448 0
    outer loop
      vertex -3.5 283 0
      vertex -3.42352 282.272 4
      vertex -3.42352 282.272 0
    endloop
  endfacet
  facet normal 0 1 -0
    outer loop
      vertex 0.365849 279.519 0
      vertex -0.365849 279.519 4
      vertex 0.365849 279.519 4
    endloop
  endfacet
  facet normal 0 1 0
    outer loop
      vertex -0.365849 279.519 4
      vertex 0.365849 279.519 0
      vertex -0.365849 279.519 0
    endloop
  endfacet
  facet normal -0.743294 -0.668965 0
    outer loop
      vertex 2.83156 285.057 0
      vertex 2.34196 285.601 4
      vertex 2.34196 285.601 0
    endloop
  endfacet
  facet normal -0.743294 -0.668965 0
    outer loop
      vertex 2.34196 285.601 4
      vertex 2.83156 285.057 0
      vertex 2.83156 285.057 4
    endloop
  endfacet
  facet normal -0.207743 -0.978183 0
    outer loop
      vertex 0.365849 286.481 0
      vertex 1.08156 286.329 4
      vertex 0.365849 286.481 4
    endloop
  endfacet
  facet normal -0.207743 -0.978183 -0
    outer loop
      vertex 1.08156 286.329 4
      vertex 0.365849 286.481 0
      vertex 1.08156 286.329 0
    endloop
  endfacet
  facet normal -0.865796 -0.500397 0
    outer loop
      vertex 3.19741 284.424 0
      vertex 2.83156 285.057 4
      vertex 2.83156 285.057 0
    endloop
  endfacet
  facet normal -0.865796 -0.500397 0
    outer loop
      vertex 2.83156 285.057 4
      vertex 3.19741 284.424 0
      vertex 3.19741 284.424 4
    endloop
  endfacet
  facet normal -0.207743 0.978183 0
    outer loop
      vertex 1.08156 279.671 0
      vertex 0.365849 279.519 4
      vertex 1.08156 279.671 4
    endloop
  endfacet
  facet normal -0.207743 0.978183 0
    outer loop
      vertex 0.365849 279.519 4
      vertex 1.08156 279.671 0
      vertex 0.365849 279.519 0
    endloop
  endfacet
  facet normal -0.58771 -0.809072 0
    outer loop
      vertex 1.75 286.031 0
      vertex 2.34196 285.601 4
      vertex 1.75 286.031 4
    endloop
  endfacet
  facet normal -0.58771 -0.809072 -0
    outer loop
      vertex 2.34196 285.601 4
      vertex 1.75 286.031 0
      vertex 2.34196 285.601 0
    endloop
  endfacet
  facet normal -0.58771 0.809072 0
    outer loop
      vertex 2.34196 280.399 0
      vertex 1.75 279.969 4
      vertex 2.34196 280.399 4
    endloop
  endfacet
  facet normal -0.58771 0.809072 0
    outer loop
      vertex 1.75 279.969 4
      vertex 2.34196 280.399 0
      vertex 1.75 279.969 0
    endloop
  endfacet
  facet normal 0.207743 0.978183 -0
    outer loop
      vertex -0.365849 279.519 0
      vertex -1.08156 279.671 4
      vertex -0.365849 279.519 4
    endloop
  endfacet
  facet normal 0.207743 0.978183 0
    outer loop
      vertex -1.08156 279.671 4
      vertex -0.365849 279.519 0
      vertex -1.08156 279.671 0
    endloop
  endfacet
  facet normal 0.994527 -0.10448 0
    outer loop
      vertex -3.5 283 4
      vertex -3.42352 283.728 0
      vertex -3.42352 283.728 4
    endloop
  endfacet
  facet normal 0.994527 -0.10448 0
    outer loop
      vertex -3.42352 283.728 0
      vertex -3.5 283 4
      vertex -3.5 283 0
    endloop
  endfacet
  facet normal -0.407183 -0.913347 0
    outer loop
      vertex 1.08156 286.329 0
      vertex 1.75 286.031 4
      vertex 1.08156 286.329 4
    endloop
  endfacet
  facet normal -0.407183 -0.913347 -0
    outer loop
      vertex 1.75 286.031 4
      vertex 1.08156 286.329 0
      vertex 1.75 286.031 0
    endloop
  endfacet
  facet normal 0.743294 -0.668965 0
    outer loop
      vertex -2.83156 285.057 4
      vertex -2.34196 285.601 0
      vertex -2.34196 285.601 4
    endloop
  endfacet
  facet normal 0.743294 -0.668965 0
    outer loop
      vertex -2.34196 285.601 0
      vertex -2.83156 285.057 4
      vertex -2.83156 285.057 0
    endloop
  endfacet
  facet normal 0.58771 -0.809072 0
    outer loop
      vertex -2.34196 285.601 0
      vertex -1.75 286.031 4
      vertex -2.34196 285.601 4
    endloop
  endfacet
  facet normal 0.58771 -0.809072 0
    outer loop
      vertex -1.75 286.031 4
      vertex -2.34196 285.601 0
      vertex -1.75 286.031 0
    endloop
  endfacet
  facet normal 0.865796 0.500397 0
    outer loop
      vertex -2.83156 280.943 4
      vertex -3.19741 281.576 0
      vertex -3.19741 281.576 4
    endloop
  endfacet
  facet normal 0.865796 0.500397 0
    outer loop
      vertex -3.19741 281.576 0
      vertex -2.83156 280.943 4
      vertex -2.83156 280.943 0
    endloop
  endfacet
  facet normal -0.705943 -0.708269 0
    outer loop
      vertex -4.24264 213.915 0
      vertex -4.32792 214 4
      vertex -4.32792 214 0
    endloop
  endfacet
  facet normal -0.705943 -0.708269 0
    outer loop
      vertex -4.32792 214 4
      vertex -4.24264 213.915 0
      vertex -4.24264 213.915 4
    endloop
  endfacet
  facet normal 0.705943 -0.708269 0
    outer loop
      vertex -4.24264 213.915 4
      vertex -4.15736 214 0
      vertex -4.15736 214 4
    endloop
  endfacet
  facet normal 0.705943 -0.708269 0
    outer loop
      vertex -4.15736 214 0
      vertex -4.24264 213.915 4
      vertex -4.24264 213.915 0
    endloop
  endfacet
  facet normal 0.707143 -0.707071 0
    outer loop
      vertex -3.69 214.467 0
      vertex -0.15736 218 4
      vertex -3.69 214.467 4
    endloop
  endfacet
  facet normal 0.707143 -0.707071 0
    outer loop
      vertex -0.15736 218 4
      vertex -3.69 214.467 0
      vertex -0.15736 218 0
    endloop
  endfacet
endsolid OpenSCAD_Model
